<svg id="Capa_1" enable-background="new 0 0 512 512" height="512" viewBox="0 0 512 512" width="512" xmlns="http://www.w3.org/2000/svg"><g><path d="m454.471 495.243h-396.942c-31.772 0-57.529-25.757-57.529-57.529v-363.421c0-31.772 25.757-57.529 57.529-57.529h396.942c31.772 0 57.529 25.757 57.529 57.529v363.421c0 31.772-25.757 57.529-57.529 57.529z" fill="#f6f9f9"/><path d="m79.118 495.235h-21.582c-31.781 0-57.536-25.754-57.536-57.525v-363.417c0-31.771 25.755-57.536 57.536-57.536h21.582c-31.781 0-57.536 25.765-57.536 57.536v363.417c0 31.771 25.755 57.525 57.536 57.525z" fill="#dae7ef"/><path d="m289.934 109.26 27.425 183-27.425 172.073h-232.409c-14.701 0-26.62-11.919-26.62-26.62v-295.858c0-17.997 14.598-32.595 32.595-32.595z" fill="#30579d"/><path d="m481.095 141.855v295.858c0 14.701-11.919 26.62-26.62 26.62h-164.54v-355.073h158.565c17.997 0 32.595 14.597 32.595 32.595z" fill="#9dc6fb"/><g fill="#e28086"><circle cx="49.747" cy="64.04" r="18.842"/><circle cx="109.649" cy="64.04" r="18.842"/><circle cx="169.551" cy="64.04" r="18.842"/></g><g><g><path d="m96.612 171.244h-27.639c-4.267 0-7.726-3.459-7.726-7.726s3.459-7.726 7.726-7.726h27.639c4.267 0 7.726 3.459 7.726 7.726s-3.459 7.726-7.726 7.726z" fill="#f6f9f9"/><path d="m256 171.244h-44.223c-4.267 0-7.726-3.459-7.726-7.726s3.459-7.726 7.726-7.726h44.223c4.267 0 7.726 3.459 7.726 7.726s-3.459 7.726-7.726 7.726z" fill="#e28086"/><path d="m189.665 171.244h-70.02c-4.267 0-7.726-3.459-7.726-7.726s3.459-7.726 7.726-7.726h70.02c4.267 0 7.726 3.459 7.726 7.726s-3.459 7.726-7.726 7.726z" fill="#c0e3a0"/></g><g><path d="m141.757 214.409h-72.784c-4.267 0-7.726-3.459-7.726-7.726s3.459-7.726 7.726-7.726h72.784c4.267 0 7.726 3.459 7.726 7.726s-3.459 7.726-7.726 7.726z" fill="#f6f9f9"/><path d="m256 214.409h-22.112c-4.267 0-7.726-3.459-7.726-7.726s3.459-7.726 7.726-7.726h22.112c4.267 0 7.726 3.459 7.726 7.726s-3.459 7.726-7.726 7.726z" fill="#e28086"/><path d="m211.777 214.409h-46.987c-4.267 0-7.726-3.459-7.726-7.726s3.459-7.726 7.726-7.726h46.987c4.267 0 7.726 3.459 7.726 7.726s-3.459 7.726-7.726 7.726z" fill="#c0e3a0"/></g><g><path d="m96.612 257.573h-27.639c-4.267 0-7.726-3.459-7.726-7.726s3.459-7.726 7.726-7.726h27.639c4.267 0 7.726 3.459 7.726 7.726.001 4.267-3.459 7.726-7.726 7.726z" fill="#f6f9f9"/><path d="m256 257.573h-44.223c-4.267 0-7.726-3.459-7.726-7.726s3.459-7.726 7.726-7.726h44.223c4.267 0 7.726 3.459 7.726 7.726s-3.459 7.726-7.726 7.726z" fill="#e28086"/><path d="m189.665 257.573h-70.02c-4.267 0-7.726-3.459-7.726-7.726s3.459-7.726 7.726-7.726h70.02c4.267 0 7.726 3.459 7.726 7.726s-3.459 7.726-7.726 7.726z" fill="#c0e3a0"/></g><g><path d="m85.556 300.738h-16.583c-4.267 0-7.726-3.459-7.726-7.726s3.459-7.726 7.726-7.726h16.583c4.267 0 7.726 3.459 7.726 7.726.001 4.267-3.459 7.726-7.726 7.726z" fill="#f6f9f9"/><path d="m256 300.738h-86.604c-4.267 0-7.726-3.459-7.726-7.726s3.459-7.726 7.726-7.726h86.604c4.267 0 7.726 3.459 7.726 7.726s-3.459 7.726-7.726 7.726z" fill="#e28086"/><path d="m147.285 300.738h-38.695c-4.267 0-7.726-3.459-7.726-7.726s3.459-7.726 7.726-7.726h38.695c4.267 0 7.726 3.459 7.726 7.726s-3.459 7.726-7.726 7.726z" fill="#c0e3a0"/></g><g><path d="m82.793 343.903h-13.82c-4.267 0-7.726-3.459-7.726-7.726s3.459-7.726 7.726-7.726h13.82c4.267 0 7.726 3.459 7.726 7.726s-3.459 7.726-7.726 7.726z" fill="#f6f9f9"/><path d="m256 343.903h-22.112c-4.267 0-7.726-3.459-7.726-7.726s3.459-7.726 7.726-7.726h22.112c4.267 0 7.726 3.459 7.726 7.726s-3.459 7.726-7.726 7.726z" fill="#e28086"/><path d="m211.777 343.903h-105.952c-4.267 0-7.726-3.459-7.726-7.726s3.459-7.726 7.726-7.726h105.951c4.267 0 7.726 3.459 7.726 7.726s-3.458 7.726-7.725 7.726z" fill="#c0e3a0"/></g></g><g fill="#30579d"><path d="m352.845 324.544c-1.977 0-3.955-.755-5.463-2.263l-30.022-30.022c-1.449-1.449-2.263-3.414-2.263-5.463s.814-4.015 2.263-5.463l30.022-30.022c3.017-3.017 7.909-3.017 10.927 0s3.018 7.909 0 10.927l-24.559 24.559 24.559 24.558c3.018 3.017 3.018 7.909 0 10.927-1.51 1.508-3.487 2.262-5.464 2.262z"/><path d="m416.569 324.544c-1.977 0-3.955-.754-5.463-2.263-3.018-3.017-3.018-7.909 0-10.927l24.559-24.558-24.559-24.559c-3.018-3.017-3.018-7.909 0-10.927 3.017-3.017 7.909-3.017 10.927 0l30.022 30.022c1.449 1.449 2.263 3.414 2.263 5.463s-.814 4.015-2.263 5.463l-30.022 30.022c-1.509 1.51-3.487 2.264-5.464 2.264z"/><path d="m373.28 341.788c-.571 0-1.15-.063-1.73-.196-4.159-.952-6.76-5.096-5.808-9.255l21.629-94.528c.951-4.16 5.094-6.762 9.255-5.808 4.159.952 6.76 5.096 5.808 9.255l-21.629 94.528c-.82 3.579-4.003 6.004-7.525 6.004z"/></g></g></svg>