<svg xmlns="http://www.w3.org/2000/svg" xmlns:xlink="http://www.w3.org/1999/xlink" width="16" height="16" viewBox="0 0 16 16">
  <defs>
    <clipPath id="clip-safari-pinned-tab">
      <rect width="16" height="16"/>
    </clipPath>
  </defs>
  <g id="safari-pinned-tab" clip-path="url(#clip-safari-pinned-tab)">
    <path id="Path_11" data-name="Path 11" d="M1441,1865h-16v-16h16v16Zm-10.813-6.092-.454,1.281a3.855,3.855,0,0,0,.356.176,3.933,3.933,0,0,0,.506.176,5.56,5.56,0,0,0,.677.139,5.9,5.9,0,0,0,.858.057c.131,0,.387-.01.394-.011l3.594-.4a.169.169,0,0,0,.123-.058.185.185,0,0,0,0-.232.17.17,0,0,0-.123-.058l-1.448-.267a1.725,1.725,0,0,0,.123-.238,1.865,1.865,0,0,0,.088-.26,2.164,2.164,0,0,0,.053-.283,2.6,2.6,0,0,0,.017-.305,3.175,3.175,0,0,0-.034-.478,2.036,2.036,0,0,0-.1-.4,1.742,1.742,0,0,0-.169-.338,1.714,1.714,0,0,0-.239-.292,2.267,2.267,0,0,0-.309-.252,3.025,3.025,0,0,0-.378-.218c-.274-.134-.6-.271-.971-.408-.178-.062-.343-.122-.491-.181a2.332,2.332,0,0,1-.393-.2,1.077,1.077,0,0,1-.151-.115.771.771,0,0,1-.112-.128.5.5,0,0,1-.07-.15.671.671,0,0,1-.023-.181.724.724,0,0,1,.016-.155.546.546,0,0,1,.047-.133.5.5,0,0,1,.079-.112.566.566,0,0,1,.111-.091.751.751,0,0,1,.147-.07,1.27,1.27,0,0,1,.188-.05,2.687,2.687,0,0,1,.5-.04,3.61,3.61,0,0,1,.479.03,2.314,2.314,0,0,1,.4.089,4.42,4.42,0,0,1,.667.274l.465-1.271a3.46,3.46,0,0,0-.387-.178c-.144-.057-.306-.111-.48-.163a3.619,3.619,0,0,0-.576-.116,5.505,5.505,0,0,0-.674-.039,4.285,4.285,0,0,0-.579.037,3.251,3.251,0,0,0-.517.112,2.716,2.716,0,0,0-.449.182,2.172,2.172,0,0,0-.377.247,1.912,1.912,0,0,0-.666,1.1,2.318,2.318,0,0,0-.047.471,2.254,2.254,0,0,0,.044.458,1.54,1.54,0,0,0,.132.384,2.022,2.022,0,0,0,.2.32,1.884,1.884,0,0,0,.253.269,2.526,2.526,0,0,0,.3.222,2.7,2.7,0,0,0,.333.181c.233.106.469.2.7.284.267.089.5.176.687.26a2.682,2.682,0,0,1,.449.242.953.953,0,0,1,.145.124.719.719,0,0,1,.1.138.627.627,0,0,1,.062.153.678.678,0,0,1,.021.168.831.831,0,0,1-.052.3.463.463,0,0,1-.072.125.584.584,0,0,1-.114.107.82.82,0,0,1-.156.088,1.337,1.337,0,0,1-.2.067,1.731,1.731,0,0,1-.252.043,3.1,3.1,0,0,1-.311.014,5.264,5.264,0,0,1-.629-.035,3.216,3.216,0,0,1-.523-.1c-.156-.046-.3-.1-.433-.149a3.245,3.245,0,0,1-.358-.167Z" transform="translate(-1425 -1849)"/>
  </g>
</svg>
