<svg id="logo" xmlns="http://www.w3.org/2000/svg" width="263" height="110" viewBox="0 0 263 110">
  <text id="zulcuś" transform="translate(84 82.237)" fill="#d3d3d3" font-size="60" font-family="Ubuntu-Bold, Ubuntu" font-weight="700"><tspan x="0" y="0">zulcuś</tspan></text>
  <path id="S" d="M-3206.748-505.039a81.447,81.447,0,0,1-9.964-2.054,57.224,57.224,0,0,1-7.454-2.586,56.628,56.628,0,0,1-5.249-2.587l6.693-18.865a59.667,59.667,0,0,0,11.637,4.64,60.359,60.359,0,0,0,16.962,2.054,34.185,34.185,0,0,0,8.291-.837,15.3,15.3,0,0,0,5.249-2.282,7.641,7.641,0,0,0,2.738-3.423,12.2,12.2,0,0,0,.761-4.413q0-5.173-4.868-8.6t-16.734-7.379q-5.172-1.826-10.343-4.184a38.131,38.131,0,0,1-9.28-5.934,28.376,28.376,0,0,1-6.693-8.672,27.158,27.158,0,0,1-2.586-12.4,30.7,30.7,0,0,1,2.738-13.161,28.091,28.091,0,0,1,7.758-9.965A35.5,35.5,0,0,1-3204.923-612,54.623,54.623,0,0,1-3188.8-614.2a65.646,65.646,0,0,1,18.407,2.282,65.746,65.746,0,0,1,12.778,5.021l-6.846,18.713a64.866,64.866,0,0,0-9.811-4.032,42.493,42.493,0,0,0-13.006-1.749q-8.52,0-12.246,2.358a7.959,7.959,0,0,0-3.727,7.227,8.348,8.348,0,0,0,1.369,4.869,13.308,13.308,0,0,0,3.878,3.575,34.066,34.066,0,0,0,5.781,2.891q3.271,1.294,7.226,2.662,8.214,3.043,14.3,6.01a38.172,38.172,0,0,1,10.117,6.922,25.078,25.078,0,0,1,6.009,9.281,37.292,37.292,0,0,1,1.978,12.932,29.852,29.852,0,0,1-4.128,16l65.672,3.933a2.564,2.564,0,0,1,0,5.12l-97.265,5.825c-.092.006-3.9.156-5.809.156A86.429,86.429,0,0,1-3206.748-505.039Z" transform="translate(3229.415 614.202)" fill="#87ceeb"/>
</svg>
