<svg id="flat" height="512" viewBox="0 0 512 512" width="512" xmlns="http://www.w3.org/2000/svg"><path d="m460.11621 142.86035a8.00153 8.00153 0 0 0 3.88379-6.86035v-32h-16v27.4707l-24 14.39942v-81.87012h-16v168h16v-67.47z" fill="#f7d179"/><path d="m456 200h16v80h-16z" fill="#f7d179"/><path d="m368 120h16v88h-16z" fill="#f7d179"/><path d="m321.59961 83.2002a8.00115 8.00115 0 0 0 -1.59961 4.7998v72h16v-69.333l22.40039-29.8672-12.80078-9.5996z" fill="#f7d179"/><path d="m288 64h16v72h-16z" fill="#f7d179"/><path d="m488 280v192a15.99564 15.99564 0 0 1 -16 16h-432a15.99564 15.99564 0 0 1 -16-16v-432a15.99548 15.99548 0 0 1 16-16h152z" fill="#5771e5"/><path d="m247.5 72h-223.5v-32a15.99548 15.99548 0 0 1 16-16h152z" fill="#89a8f5"/><circle cx="456" cy="88" fill="#f7c04a" r="16"/><path d="m456 112a24 24 0 1 1 24-24 24.0275 24.0275 0 0 1 -24 24zm0-32a8 8 0 1 0 8 8 8.00917 8.00917 0 0 0 -8-8z" fill="#fcedc0"/><circle cx="464" cy="184" fill="#f7c04a" r="16"/><path d="m464 208a24 24 0 1 1 24-24 24.0275 24.0275 0 0 1 -24 24zm0-32a8 8 0 1 0 8 8 8.00917 8.00917 0 0 0 -8-8z" fill="#fcedc0"/><circle cx="416" cy="48" fill="#f7c04a" r="16"/><path d="m416 72a24 24 0 1 1 24-24 24.0275 24.0275 0 0 1 -24 24zm0-32a8 8 0 1 0 8 8 8.00917 8.00917 0 0 0 -8-8z" fill="#fcedc0"/><circle cx="376" cy="104" fill="#f7c04a" r="16"/><path d="m376 128a24 24 0 1 1 24-24 24.0275 24.0275 0 0 1 -24 24zm0-32a8 8 0 1 0 8 8 8.00917 8.00917 0 0 0 -8-8z" fill="#fcedc0"/><circle cx="296" cy="48" fill="#f7c04a" r="16"/><path d="m296 72a24 24 0 1 1 24-24 24.0275 24.0275 0 0 1 -24 24zm0-32a8 8 0 1 0 8 8 8.00917 8.00917 0 0 0 -8-8z" fill="#fcedc0"/><circle cx="360" cy="48" fill="#f7c04a" r="16"/><path d="m360 72a24 24 0 1 1 24-24 24.0275 24.0275 0 0 1 -24 24zm0-32a8 8 0 1 0 8 8 8.00917 8.00917 0 0 0 -8-8z" fill="#fcedc0"/><path d="m323.2002 406.40039-32-24a8.00048 8.00048 0 0 1 0-12.80078l32-24 9.5996 12.80078-23.4668 17.59961 23.46679 17.59961z" fill="#89a8f5"/><path d="m412.7998 406.40039-9.5996-12.80078 23.4668-17.59961-23.4668-17.59961 9.5996-12.80078 32 24a8.00048 8.00048 0 0 1 0 12.80078z" fill="#89a8f5"/><path d="m310.729 372h114.543v16h-114.543z" fill="#89a8f5" transform="matrix(.419 -.908 .908 .419 -131.239 554.883)"/><g fill="#3d44d1"><path d="m56 104h16v16h-16z"/><path d="m88 104h40v16h-40z"/><path d="m56 136h16v16h-16z"/><path d="m104 136h40v16h-40z"/><path d="m160 136h16v16h-16z"/><path d="m128 168h56v16h-56z"/><path d="m56 280h16v16h-16z"/><path d="m88 280h40v16h-40z"/><path d="m56 312h16v16h-16z"/><path d="m104 312h96v16h-96z"/><path d="m216 312h16v16h-16z"/><path d="m176 344h80v16h-80z"/><path d="m128 344h32v16h-32z"/><path d="m144 232h104v16h-104z"/><path d="m128 200h72v16h-72z"/><path d="m96 200h16v16h-16z"/><path d="m264 232h56v16h-56z"/><path d="m120 376h80v16h-80z"/><path d="m96 408h48v16h-48z"/><path d="m160 408h24v16h-24z"/><path d="m152 440h80v16h-80z"/></g><circle cx="48" cy="48" fill="#f79a7e" r="8"/><circle cx="72" cy="48" fill="#f7c04a" r="8"/><circle cx="96" cy="48" fill="#90d4b1" r="8"/></svg>