<svg id="Line" height="512" viewBox="0 0 36 36" width="512" xmlns="http://www.w3.org/2000/svg"><path d="m13.411 34.999c6.298-2.859 12.105-1.559 15.14-2.936 3.035-1.378 8.617-6.016 2.28-19.978s-15.841-12.12-19.18-10.605c-15.632 7.095-9.395 38.582 1.76 33.519z" fill="#efefef"/><path d="m5.75 7.25c-.827 0-1.5-.673-1.5-1.5s.673-1.5 1.5-1.5 1.5.673 1.5 1.5-.673 1.5-1.5 1.5zm0-2c-.275 0-.5.224-.5.5s.225.5.5.5.5-.224.5-.5-.225-.5-.5-.5z" fill="#a4afc1"/><circle cx="25" cy="11.5" fill="#2fdf84" r="2.75"/><path d="m21.75 12.75v11h-13v-11c0-1.1.9-2 2-2h3.75 5.25c1.105 0 2 .895 2 2z" fill="#f3f3f1"/><path d="m12.75 10.75c-1.1 0-2 .9-2 2v11h-2v-11c0-1.1.9-2 2-2z" fill="#d5dbe1"/><path d="m21.75 24.5h-13c-.414 0-.75-.336-.75-.75v-11c0-1.517 1.233-2.75 2.75-2.75h6.5v1.5h-6.5c-.689 0-1.25.561-1.25 1.25v10.25h11.5v-5.25h1.5v6c0 .414-.336.75-.75.75z"/><path d="m6.75 23h16.5v1.5h-16.5z"/><path d="m8.75 23.75h1.5v5.5h-1.5z"/><path d="m14.25 23.75h1.5v5.5h-1.5z"/><path d="m19.75 23.75h1.5v5.5h-1.5z"/><path d="m25 15c-1.93 0-3.5-1.57-3.5-3.5s1.57-3.5 3.5-3.5 3.5 1.57 3.5 3.5-1.57 3.5-3.5 3.5zm0-5.5c-1.103 0-2 .897-2 2s.897 2 2 2 2-.897 2-2-.897-2-2-2z"/><path d="m24.25 13.5h1.5v3.5h-1.5z"/><path d="m24.25 6h1.5v3.5h-1.5z"/><path d="m26.505 8.88h3.62v1.5h-3.62z" transform="matrix(.882 -.471 .471 .882 -1.196 14.485)"/><path d="m19.875 12.62h3.62v1.5h-3.62z" transform="matrix(.882 -.471 .471 .882 -3.742 11.801)"/><path d="m20.935 7.82h1.5v3.62h-1.5z" transform="matrix(.472 -.882 .882 .472 2.966 24.21)"/><path d="m27.565 11.56h1.5v3.62h-1.5z" transform="matrix(.472 -.882 .882 .472 3.171 32.032)"/></svg>