<svg viewBox="-15 0 512 512" xmlns="http://www.w3.org/2000/svg"><path d="m436 241h-90c-24.902344 0-45 20.101562-45 45v181c0 24.898438 20.097656 45 45 45h90c24.902344 0 45-20.101562 45-45v-181c0-24.898438-20.097656-45-45-45zm0 0" fill="#3e5959"/><path d="m436 241h-45v271h45c24.902344 0 45-20.101562 45-45v-181c0-24.898438-20.097656-45-45-45zm0 0" fill="#384949"/><path d="m331 301h120v151h-120zm0 0" fill="#bdfdff"/><path d="m391 301h60v151h-60zm0 0" fill="#9bfbff"/><path d="m226 0h-181c-24.902344 0-45 20.101562-45 45v211c0 24.898438 20.097656 45 45 45h181c24.902344 0 45-20.101562 45-45v-211c0-24.898438-20.097656-45-45-45zm0 0" fill="#4a696f"/><path d="m226 0h-90v301h90c24.902344 0 45-20.101562 45-45v-211c0-24.898438-20.097656-45-45-45zm0 0" fill="#3e5959"/><path d="m45 30h181c8.402344 0 15 6.597656 15 15v196h-211v-196c0-8.402344 6.597656-15 15-15zm0 0" fill="#46f8ff"/><path d="m136 30h90c8.402344 0 15 6.597656 15 15v196h-105zm0 0" fill="#00e7f0"/><path d="m446.5 146.5-30 30c-2.699219 3-6.601562 4.5-10.5 4.5s-7.800781-1.5-10.5-4.5l-30-30c-6-5.699219-6-15.300781 0-21 5.699219-6 15.300781-6 21 0l4.5 4.199219v-38.699219h-45c-8.398438 0-15-6.601562-15-15 0-8.402344 6.601562-15 15-15h60c8.402344 0 15 6.597656 15 15v53.699219l4.503906-4.199219c5.699219-6 15.296875-6 20.996094 0 6 5.699219 6 15.300781 0 21zm0 0" fill="#ff9f00"/><path d="m446.5 146.5-30 30c-2.699219 3-6.601562 4.5-10.5 4.5v-120c8.402344 0 15 6.597656 15 15v53.699219l4.5-4.199219c5.699219-6 15.300781-6 21 0 6 5.699219 6 15.300781 0 21zm0 0" fill="#ff7816"/><path d="m211 436c0 8.398438-6.597656 15-15 15h-60c-8.402344 0-15-6.601562-15-15v-53.699219l-4.5 4.199219c-5.699219 6-15.300781 6-21 0-6-5.699219-6-15.300781 0-21l30-30c2.699219-3 6.601562-4.5 10.5-4.5s7.800781 1.5 10.5 4.5l30 30c6 5.699219 6 15.300781 0 21-5.699219 6-15.300781 6-21 0l-4.5-4.199219v38.699219h45c8.402344 0 15 6.597656 15 15zm0 0" fill="#ff9f00"/><path d="m211 436c0 8.398438-6.597656 15-15 15h-60v-120c3.898438 0 7.800781 1.5 10.5 4.5l30 30c6 5.699219 6 15.300781 0 21-5.699219 6-15.300781 6-21 0l-4.5-4.199219v38.699219h45c8.402344 0 15 6.597656 15 15zm0 0" fill="#ff7816"/></svg>