<svg height="512pt" viewBox="0 -21 512.0005 512" width="512pt" xmlns="http://www.w3.org/2000/svg"><path d="m471.359375 20.933594v355.609375c0 5.683593-4.617187 10.300781-10.300781 10.300781h-450.757813c-5.6875 0-10.300781-4.617188-10.300781-10.300781v-355.609375c0-11.558594 9.375-20.933594 20.933594-20.933594h429.492187c11.558594 0 20.933594 9.375 20.933594 20.933594zm0 0" fill="#e3f4ff"/><path d="m471.359375 364.417969v12.125c0 5.683593-4.617187 10.300781-10.300781 10.300781h-95.984375l-24.363281-24.363281c-7.128907-7.128907-8.261719-18-3.449219-26.34375l-28.230469-28.214844c-26.113281 17.914063-56.976562 27.554687-89.335938 27.554687-42.308593 0-82.074218-16.472656-111.992187-46.378906-61.746094-61.75-61.746094-162.230468 0-223.980468 29.917969-29.90625 69.683594-46.378907 111.992187-46.378907 42.300782 0 82.074219 16.472657 111.980469 46.378907 29.917969 29.914062 46.390625 69.691406 46.390625 111.988281 0 32.359375-9.640625 63.222656-27.570312 89.351562l28.21875 28.203125c3.285156-1.894531 7.015625-2.933594 10.910156-2.933594 5.832031 0 11.320312 2.277344 15.441406 6.40625zm0 0" fill="#bddff4"/><path d="m471.359375 20.933594v355.609375c0 5.683593-4.617187 10.300781-10.300781 10.300781h-22.53125c5.6875 0 10.300781-4.617188 10.300781-10.300781v-355.609375c0-11.558594-9.375-20.933594-20.933594-20.933594h22.53125c11.558594 0 20.933594 9.375 20.933594 20.933594zm0 0" fill="#bddff4"/><path d="m471.359375 20.933594v36.035156h-471.359375v-36.035156c0-11.570313 9.375-20.933594 20.933594-20.933594h429.492187c11.558594 0 20.933594 9.375 20.933594 20.933594zm0 0" fill="#43a3f9"/><path d="m322.898438 56.96875h-206.414063c28.710937-24.734375 64.921875-38.230469 103.210937-38.230469 38.28125 0 74.503907 13.496094 103.203126 38.230469zm0 0" fill="#1685fb"/><path d="m471.359375 20.933594v36.035156h-22.53125v-36.035156c0-11.558594-9.375-20.933594-20.933594-20.933594h22.53125c11.558594 0 20.933594 9.375 20.933594 20.933594zm0 0" fill="#1685fb"/><path d="m300.5625 281.964844 23.984375-23.984375 66.105469 66.105469-23.984375 23.984374zm0 0" fill="#43a3f9"/><path d="m365.707031 177.109375c0 80.640625-65.371093 146.011719-146.011719 146.011719-80.640624 0-146.011718-65.371094-146.011718-146.011719s65.371094-146.011719 146.011718-146.011719c80.640626 0 146.011719 65.371094 146.011719 146.011719zm0 0" fill="#618baa"/><path d="m339.277344 177.109375c0 66.042969-53.539063 119.582031-119.582032 119.582031-66.042968 0-119.585937-53.539062-119.585937-119.582031 0-66.046875 53.542969-119.585937 119.585937-119.585937 66.042969 0 119.582032 53.539062 119.582032 119.585937zm0 0" fill="#3fefef"/><path d="m509.21875 433.175781-33.457031 33.457031c-3.703125 3.703126-9.710938 3.703126-13.414063 0l-112.886718-112.890624c-3.707032-3.703126-3.707032-9.707032 0-13.410157l33.457031-33.460937c3.703125-3.703125 9.710937-3.703125 13.410156 0l112.890625 112.890625c3.703125 3.703125 3.703125 9.707031 0 13.414062zm0 0" fill="#618baa"/><path d="m396.332031 306.867188 112.890625 112.894531c3.703125 3.703125 3.703125 9.710937 0 13.410156l-13.332031 13.332031c3.703125-3.699218 3.703125-9.710937 0-13.410156l-112.890625-112.894531c-3.703125-3.699219-9.710938-3.699219-13.414062 0l13.332031-13.332031c3.703125-3.699219 9.710937-3.699219 13.414062 0zm0 0" fill="#4e7693"/><path d="m453.53125 461.894531c-1.976562 0-3.957031-.753906-5.464844-2.261719-3.015625-3.019531-3.015625-7.910156 0-10.929687l42.089844-42.085937c3.019531-3.019532 7.910156-3.019532 10.929688 0 3.015624 3.015624 3.015624 7.90625 0 10.925781l-42.089844 42.089843c-1.511719 1.507813-3.488282 2.261719-5.464844 2.261719zm0 0" fill="#43a3f9"/><path d="m47.839844 36.804688c-4.242188 0-7.699219-3.429688-7.722656-7.679688-.027344-4.265625 3.410156-7.789062 7.675781-7.816406h.050781c4.246094 0 7.699219 3.386718 7.722656 7.640625v.078125c.027344 4.269531-3.410156 7.75-7.675781 7.777344-.015625 0-.03125 0-.050781 0zm0 0" fill="#fc3e81"/><path d="m67.914062 36.804688c-4.246093 0-7.699218-3.429688-7.726562-7.679688-.027344-4.265625 3.410156-7.789062 7.679688-7.816406h.046874c4.246094 0 7.699219 3.386718 7.726563 7.640625v.078125c.027344 4.269531-3.410156 7.75-7.675781 7.777344-.019532 0-.035156 0-.050782 0zm0 0" fill="#9be058"/><path d="m87.984375 36.804688c-4.242187 0-7.699219-3.429688-7.722656-7.679688-.027344-4.265625 3.410156-7.789062 7.675781-7.816406h.050781c4.242188 0 7.699219 3.386718 7.722657 7.640625l.003906.078125c.023437 4.269531-3.414063 7.75-7.679688 7.777344-.015625 0-.03125 0-.050781 0zm0 0" fill="#ffdf46"/><g fill="#e3f4ff"><path d="m156.667969 208.679688c-4.265625 0-7.726563-3.460938-7.726563-7.726563s3.460938-7.769531 7.726563-7.769531c4.269531 0 7.726562 3.414062 7.726562 7.683594v.085937c0 4.265625-3.457031 7.726563-7.726562 7.726563zm0 0"/><path d="m156.667969 234.449219c-4.265625 0-7.726563-3.460938-7.726563-7.726563s3.460938-7.769531 7.726563-7.769531c4.269531 0 7.726562 3.414063 7.726562 7.679687v.089844c0 4.265625-3.457031 7.726563-7.726562 7.726563zm0 0"/><path d="m178.691406 208.679688c-4.265625 0-7.726562-3.460938-7.726562-7.726563s3.460937-7.769531 7.726562-7.769531 7.726563 3.414062 7.726563 7.683594v.085937c0 4.265625-3.460938 7.726563-7.726563 7.726563zm0 0"/><path d="m178.691406 234.449219c-4.265625 0-7.726562-3.460938-7.726562-7.726563s3.460937-7.769531 7.726562-7.769531 7.726563 3.414063 7.726563 7.679687v.089844c0 4.265625-3.460938 7.726563-7.726563 7.726563zm0 0"/></g><path d="m245.113281 108.953125-82.796875 20.074219c-6.082031 1.476562-8.144531 9.082031-3.644531 13.429687l65.546875 63.355469c4.5 4.351562 12.027344 2.027344 13.296875-4.101562l17.246094-83.433594c1.179687-5.707032-3.984375-10.695313-9.648438-9.324219zm0 0" fill="#43a3f9"/><path d="m196.722656 158.242188 18.664063 83.125c1.371093 6.105468 8.941406 8.300781 13.367187 3.875l64.460938-64.460938c4.425781-4.425781 2.230468-11.992188-3.878906-13.363281l-83.125-18.664063c-5.683594-1.277344-10.765626 3.800782-9.488282 9.488282zm0 0" fill="#fc3e81"/><path d="m246.585938 157.8125-9.070313 43.894531c-1.269531 6.128907-8.796875 8.457031-13.292969 4.105469l-21.480468-20.761719-6.019532-26.808593c-1.273437-5.6875 3.800782-10.769532 9.488282-9.492188zm0 0" fill="#4a5be5"/><path d="m50.648438 313.796875h-4.226563c-4.265625 0-7.726563-3.457031-7.726563-7.726563 0-4.265624 3.460938-7.722656 7.726563-7.722656h4.226563c4.265624 0 7.726562 3.457032 7.726562 7.722656 0 4.269532-3.460938 7.726563-7.726562 7.726563zm0 0" fill="#618baa"/><path d="m95.390625 313.796875h-26.339844c-4.265625 0-7.726562-3.457031-7.726562-7.726563 0-4.265624 3.460937-7.722656 7.726562-7.722656h26.339844c4.265625 0 7.726563 3.457032 7.726563 7.722656 0 4.269532-3.460938 7.726563-7.726563 7.726563zm0 0" fill="#618baa"/><path d="m95.390625 334.210938h-48.96875c-4.265625 0-7.726563-3.457032-7.726563-7.726563 0-4.265625 3.460938-7.726563 7.726563-7.726563h48.96875c4.265625 0 7.726563 3.460938 7.726563 7.726563 0 4.269531-3.460938 7.726563-7.726563 7.726563zm0 0" fill="#618baa"/><path d="m95.390625 354.625h-48.96875c-4.265625 0-7.726563-3.460938-7.726563-7.726562 0-4.265626 3.460938-7.726563 7.726563-7.726563h48.96875c4.265625 0 7.726563 3.460937 7.726563 7.726563 0 4.265624-3.460938 7.726562-7.726563 7.726562zm0 0" fill="#618baa"/><path d="m429.714844 256.730469c-4.269532 0-7.726563-3.457031-7.726563-7.722657v-159.25c0-4.265624 3.457031-7.722656 7.726563-7.722656 4.265625 0 7.722656 3.457032 7.722656 7.722656v159.246094c.003906 4.269532-3.457031 7.726563-7.722656 7.726563zm0 0" fill="#43a3f9"/></svg>