<svg xmlns="http://www.w3.org/2000/svg" height="464pt" version="1.1" viewBox="0 0 464 464" width="464pt">
<g id="surface1">
<path d="M 0 64 L 464 64 L 464 0 L 0 0 Z M 104 32 Z M 72 32 Z M 40 32 Z M 40 32 " style=" stroke:none;fill-rule:nonzero;fill:rgb(14.117647%,53.333333%,100%);fill-opacity:1;" />
<path d="M 0 464 L 464 464 L 464 64 L 0 64 Z M 360 96 C 368.835938 96 376 103.164062 376 112 C 376 120.835938 368.835938 128 360 128 C 351.164062 128 344 120.835938 344 112 C 344 103.164062 351.164062 96 360 96 Z M 346 119.761719 L 302 144.238281 Z M 232 192 C 236.246094 191.996094 240.316406 193.683594 243.3125 196.6875 L 276.6875 163.3125 C 271.292969 157.914062 270.460938 149.453125 274.703125 143.109375 C 278.941406 136.761719 287.078125 134.296875 294.128906 137.21875 C 301.179688 140.140625 305.1875 147.636719 303.695312 155.125 C 302.203125 162.609375 295.632812 168 288 168 C 283.753906 168.003906 279.683594 166.316406 276.6875 163.3125 L 243.3125 196.6875 C 248.707031 202.085938 249.539062 210.546875 245.296875 216.890625 C 241.058594 223.238281 232.921875 225.703125 225.871094 222.78125 C 218.820312 219.859375 214.8125 212.363281 216.304688 204.875 C 217.796875 197.390625 224.367188 192 232 192 Z M 180.800781 169.601562 L 219.199219 198.398438 Z M 96 208 C 100.570312 208.011719 104.917969 209.988281 107.929688 213.433594 L 156.070312 170.566406 C 151.117188 164.917969 150.78125 156.578125 155.261719 150.546875 C 159.746094 144.515625 167.828125 142.433594 174.667969 145.546875 C 181.507812 148.660156 185.242188 156.125 183.636719 163.464844 C 182.027344 170.804688 175.515625 176.027344 168 176 C 163.425781 175.992188 159.078125 174.011719 156.070312 170.566406 L 107.929688 213.433594 C 112.882812 219.082031 113.21875 227.421875 108.738281 233.453125 C 104.253906 239.484375 96.171875 241.566406 89.332031 238.453125 C 82.492188 235.339844 78.757812 227.875 80.363281 220.535156 C 81.972656 213.195312 88.484375 207.972656 96 208 Z M 72 432 L 72 304 L 136 304 L 136 240 L 200 240 L 200 288 L 264 288 L 264 256 L 328 256 L 328 192 L 392 192 L 392 432 Z M 72 432 " style=" stroke:none;fill-rule:nonzero;fill:rgb(74.117647%,85.882353%,100%);fill-opacity:1;" />
<path d="M 72 304 L 136 304 L 136 432 L 72 432 Z M 72 304 " style=" stroke:none;fill-rule:nonzero;fill:rgb(60.784314%,78.823529%,100%);fill-opacity:1;" />
<path d="M 200 288 L 264 288 L 264 432 L 200 432 Z M 200 288 " style=" stroke:none;fill-rule:nonzero;fill:rgb(34.117647%,64.313725%,100%);fill-opacity:1;" />
<path d="M 328 432 L 328 256 L 264 256 L 264 432 Z M 328 432 " style=" stroke:none;fill-rule:nonzero;fill:rgb(14.117647%,53.333333%,100%);fill-opacity:1;" />
<path d="M 392 432 L 392 192 L 328 192 L 328 432 Z M 392 432 " style=" stroke:none;fill-rule:nonzero;fill:rgb(0%,36.862745%,80.784314%);fill-opacity:1;" />
<path d="M 200 432 L 200 240 L 136 240 L 136 432 Z M 200 432 " style=" stroke:none;fill-rule:nonzero;fill:rgb(0%,42.745098%,94.117647%);fill-opacity:1;" />
<path d="M 96 240 C 102.300781 240.03125 108.027344 236.34375 110.605469 230.597656 C 113.1875 224.847656 112.136719 218.121094 107.929688 213.433594 C 103.054688 207.890625 95.023438 206.402344 88.488281 209.828125 C 81.953125 213.253906 78.605469 220.707031 80.390625 227.867188 C 82.171875 235.027344 88.621094 240.039062 96 240 Z M 96 240 " style=" stroke:none;fill-rule:nonzero;fill:rgb(74.117647%,85.882353%,100%);fill-opacity:1;" />
<path d="M 168 176 C 175.632812 176.074219 182.277344 170.796875 183.933594 163.34375 C 185.589844 155.890625 181.804688 148.296875 174.855469 145.132812 C 167.90625 141.96875 159.695312 144.101562 155.160156 150.242188 C 150.625 156.382812 151.003906 164.859375 156.070312 170.566406 C 159.082031 174.011719 163.429688 175.988281 168 176 Z M 168 176 " style=" stroke:none;fill-rule:nonzero;fill:rgb(74.117647%,85.882353%,100%);fill-opacity:1;" />
<path d="M 232 224 C 238.46875 224 244.304688 220.101562 246.777344 214.121094 C 249.253906 208.144531 247.886719 201.265625 243.3125 196.6875 C 238.191406 191.566406 230.269531 190.523438 223.996094 194.144531 C 217.726562 197.765625 214.667969 205.148438 216.542969 212.140625 C 218.417969 219.136719 224.757812 224 232 224 Z M 232 224 " style=" stroke:none;fill-rule:nonzero;fill:rgb(74.117647%,85.882353%,100%);fill-opacity:1;" />
<path d="M 288 168 C 295.632812 168 302.203125 162.609375 303.695312 155.125 C 305.1875 147.636719 301.179688 140.140625 294.128906 137.21875 C 287.078125 134.296875 278.941406 136.761719 274.703125 143.109375 C 270.460938 149.453125 271.292969 157.914062 276.6875 163.3125 C 279.683594 166.316406 283.753906 168.003906 288 168 Z M 288 168 " style=" stroke:none;fill-rule:nonzero;fill:rgb(74.117647%,85.882353%,100%);fill-opacity:1;" />
<path d="M 376 112 C 376 120.835938 368.835938 128 360 128 C 351.164062 128 344 120.835938 344 112 C 344 103.164062 351.164062 96 360 96 C 368.835938 96 376 103.164062 376 112 Z M 376 112 " style=" stroke:none;fill-rule:nonzero;fill:rgb(74.117647%,85.882353%,100%);fill-opacity:1;" />
<path d="M 24 24 L 40 24 L 40 40 L 24 40 Z M 24 24 " style=" stroke:none;fill-rule:nonzero;fill:rgb(12.941176%,25.098039%,60.392157%);fill-opacity:1;" />
<path d="M 56 24 L 72 24 L 72 40 L 56 40 Z M 56 24 " style=" stroke:none;fill-rule:nonzero;fill:rgb(12.941176%,25.098039%,60.392157%);fill-opacity:1;" />
<path d="M 88 24 L 104 24 L 104 40 L 88 40 Z M 88 24 " style=" stroke:none;fill-rule:nonzero;fill:rgb(12.941176%,25.098039%,60.392157%);fill-opacity:1;" />
<path d="M 40 424 L 424 424 L 424 440 L 40 440 Z M 40 424 " style=" stroke:none;fill-rule:nonzero;fill:rgb(12.941176%,25.098039%,60.392157%);fill-opacity:1;" />
<path d="M 96 248 C 82.746094 248 72 237.253906 72 224 C 72 210.746094 82.746094 200 96 200 C 109.253906 200 120 210.746094 120 224 C 120 237.253906 109.253906 248 96 248 Z M 96 216 C 91.582031 216 88 219.582031 88 224 C 88 228.417969 91.582031 232 96 232 C 100.417969 232 104 228.417969 104 224 C 104 219.582031 100.417969 216 96 216 Z M 96 216 " style=" stroke:none;fill-rule:nonzero;fill:rgb(12.941176%,25.098039%,60.392157%);fill-opacity:1;" />
<path d="M 168 184 C 154.746094 184 144 173.253906 144 160 C 144 146.746094 154.746094 136 168 136 C 181.253906 136 192 146.746094 192 160 C 192 173.253906 181.253906 184 168 184 Z M 168 152 C 163.582031 152 160 155.582031 160 160 C 160 164.417969 163.582031 168 168 168 C 172.417969 168 176 164.417969 176 160 C 176 155.582031 172.417969 152 168 152 Z M 168 152 " style=" stroke:none;fill-rule:nonzero;fill:rgb(12.941176%,25.098039%,60.392157%);fill-opacity:1;" />
<path d="M 232 232 C 218.746094 232 208 221.253906 208 208 C 208 194.746094 218.746094 184 232 184 C 245.253906 184 256 194.746094 256 208 C 256 221.253906 245.253906 232 232 232 Z M 232 200 C 227.582031 200 224 203.582031 224 208 C 224 212.417969 227.582031 216 232 216 C 236.417969 216 240 212.417969 240 208 C 240 203.582031 236.417969 200 232 200 Z M 232 200 " style=" stroke:none;fill-rule:nonzero;fill:rgb(12.941176%,25.098039%,60.392157%);fill-opacity:1;" />
<path d="M 288 176 C 274.746094 176 264 165.253906 264 152 C 264 138.746094 274.746094 128 288 128 C 301.253906 128 312 138.746094 312 152 C 312 165.253906 301.253906 176 288 176 Z M 288 144 C 283.582031 144 280 147.582031 280 152 C 280 156.417969 283.582031 160 288 160 C 292.417969 160 296 156.417969 296 152 C 296 147.582031 292.417969 144 288 144 Z M 288 144 " style=" stroke:none;fill-rule:nonzero;fill:rgb(12.941176%,25.098039%,60.392157%);fill-opacity:1;" />
<path d="M 360 136 C 346.746094 136 336 125.253906 336 112 C 336 98.746094 346.746094 88 360 88 C 373.253906 88 384 98.746094 384 112 C 384 125.253906 373.253906 136 360 136 Z M 360 104 C 355.582031 104 352 107.582031 352 112 C 352 116.417969 355.582031 120 360 120 C 364.417969 120 368 116.417969 368 112 C 368 107.582031 364.417969 104 360 104 Z M 360 104 " style=" stroke:none;fill-rule:nonzero;fill:rgb(12.941176%,25.098039%,60.392157%);fill-opacity:1;" />
<path d="M 298.113281 137.25 L 342.109375 112.765625 L 349.890625 126.746094 L 305.890625 151.230469 Z M 298.113281 137.25 " style=" stroke:none;fill-rule:nonzero;fill:rgb(12.941176%,25.098039%,60.392157%);fill-opacity:1;" />
<path d="M 237.625 191.058594 L 271.0625 157.621094 L 282.375 168.933594 L 248.9375 202.371094 Z M 237.625 191.058594 " style=" stroke:none;fill-rule:nonzero;fill:rgb(12.941176%,25.098039%,60.392157%);fill-opacity:1;" />
<path d="M 175.996094 176 L 185.597656 163.199219 L 224 191.996094 L 214.398438 204.796875 Z M 175.996094 176 " style=" stroke:none;fill-rule:nonzero;fill:rgb(12.941176%,25.098039%,60.392157%);fill-opacity:1;" />
<path d="M 102.597656 207.464844 L 150.757812 164.589844 L 161.394531 176.542969 L 113.234375 219.414062 Z M 102.597656 207.464844 " style=" stroke:none;fill-rule:nonzero;fill:rgb(12.941176%,25.098039%,60.392157%);fill-opacity:1;" />
</g>
</svg>