<svg id="Capa_1" enable-background="new 0 0 512 512" height="512" viewBox="0 0 512 512" width="512" xmlns="http://www.w3.org/2000/svg" xmlns:xlink="http://www.w3.org/1999/xlink"><linearGradient id="SVGID_1_" gradientUnits="userSpaceOnUse" x1="256" x2="256" y1="600.693" y2="63.549"><stop offset=".0023" stop-color="#ffc599"/><stop offset=".992" stop-color="#ffe8dc" stop-opacity="0"/></linearGradient><linearGradient id="SVGID_2_" gradientUnits="userSpaceOnUse" x1="256" x2="256" y1="435.84" y2="81.16"><stop offset="0" stop-color="#ff4d4d" stop-opacity=".4"/><stop offset="1" stop-color="#ff4d4d" stop-opacity="0"/></linearGradient><g><g><path d="m465.257 166.613c-14.861-17.312-24.645-38.356-29.218-60.708-3.878-18.954-12.095-35.401-24.961-48.267-58.773-58.773-192.264-20.572-298.161 85.325-105.897 105.897-144.098 239.388-85.325 298.161 27.937 27.937 72.757 33.955 123.469 21.212 29.453-7.401 60.532-4.287 88.29 8.03 23.202 10.295 48.799 16.173 75.724 16.566 105.676 1.543 193.748-82.552 196.839-188.195 1.479-50.505-16.354-96.822-46.657-132.124z" fill="url(#SVGID_1_)"/><g><g><g><path d="m413.34 435.84h-314.68c-11.046 0-20-8.954-20-20v-79.062c0-11.046 8.954-20 20-20h314.68c11.046 0 20 8.954 20 20v79.062c0 11.045-8.955 20-20 20z" fill="#ffab66"/><path d="m433.34 354.5v-17.34c0-11.046-8.954-20-20-20h-314.68c-11.046 0-20 8.954-20 20v17.34z" fill="#ff9d33"/><path d="m433.34 338.208v-237.048c0-11.046-8.954-20-20-20h-314.68c-11.046 0-20 8.954-20 20v237.048z" fill="#fff"/></g><g><g><path d="m149.33 130.17v168.66c0 5.16-4.18 9.34-9.33 9.34s-9.33-4.18-9.33-9.34v-168.66c0-5.16 4.18-9.34 9.33-9.34 2.58 0 4.91 1.05 6.6 2.73 1.68 1.7 2.73 4.03 2.73 6.61z" fill="#6c6cff"/><path d="m149.33 198.17v37.87c-2.99.74-6.12 1.13-9.33 1.13s-6.34-.39-9.33-1.13v-37.87z" fill="#4d4dff"/><circle cx="140" cy="198.166" fill="#ffab66" r="24"/></g><g><path d="m226.67 130.17v168.66c0 5.16-4.18 9.34-9.34 9.34-5.15 0-9.33-4.18-9.33-9.34v-168.66c0-5.16 4.18-9.34 9.33-9.34 2.58 0 4.91 1.05 6.61 2.73 1.68 1.7 2.73 4.03 2.73 6.61z" fill="#6c6cff"/><path d="m226.67 228.17v37.87c-3 .74-6.12 1.13-9.34 1.13-3.21 0-6.34-.39-9.33-1.13v-37.87z" fill="#4d4dff"/><circle cx="217.333" cy="228.166" fill="#ffab66" r="24"/></g><g><path d="m304 130.17v168.66c0 5.16-4.18 9.34-9.33 9.34-5.16 0-9.34-4.18-9.34-9.34v-168.66c0-5.16 4.18-9.34 9.34-9.34 2.57 0 4.91 1.05 6.6 2.73 1.69 1.7 2.73 4.03 2.73 6.61z" fill="#6c6cff"/><path d="m304 168.17v37.87c-2.99.74-6.12 1.13-9.33 1.13-3.22 0-6.34-.39-9.34-1.13v-37.87z" fill="#4d4dff"/><circle cx="294.667" cy="168.166" fill="#ffab66" r="24"/></g><g><path d="m381.33 130.17v168.66c0 5.16-4.18 9.34-9.33 9.34s-9.33-4.18-9.33-9.34v-168.66c0-5.16 4.18-9.34 9.33-9.34 2.58 0 4.91 1.05 6.6 2.73 1.68 1.7 2.73 4.03 2.73 6.61z" fill="#6c6cff"/><path d="m381.33 258.17v37.87c-2.99.74-6.12 1.13-9.33 1.13s-6.34-.39-9.33-1.13v-37.87z" fill="#4d4dff"/><circle cx="372" cy="258.166" fill="#ffab66" r="24"/></g></g><g><g><g><path d="m134.497 379.462c-2.835 0-5.133-2.298-5.133-5.133v-3.593c0-2.835 2.298-5.133 5.133-5.133s5.133 2.298 5.133 5.133v3.593c0 2.835-2.298 5.133-5.133 5.133z" fill="#ff6c6c"/></g><g><path d="m157.082 379.462c-2.835 0-5.133-2.298-5.133-5.133v-3.593c0-2.835 2.298-5.133 5.133-5.133s5.133 2.298 5.133 5.133v3.593c0 2.835-2.298 5.133-5.133 5.133z" fill="#ff6c6c"/></g><g><path d="m179.666 379.462c-2.835 0-5.133-2.298-5.133-5.133v-3.593c0-2.835 2.298-5.133 5.133-5.133s5.133 2.298 5.133 5.133v3.593c0 2.835-2.297 5.133-5.133 5.133z" fill="#ff6c6c"/></g></g><g><g><path d="m134.497 405.85c-2.835 0-5.133-2.298-5.133-5.133v-3.593c0-2.835 2.298-5.133 5.133-5.133s5.133 2.298 5.133 5.133v3.593c0 2.835-2.298 5.133-5.133 5.133z" fill="#ff6c6c"/></g><g><path d="m157.082 405.85c-2.835 0-5.133-2.298-5.133-5.133v-3.593c0-2.835 2.298-5.133 5.133-5.133s5.133 2.298 5.133 5.133v3.593c0 2.835-2.298 5.133-5.133 5.133z" fill="#ff6c6c"/></g><g><path d="m179.666 405.85c-2.835 0-5.133-2.298-5.133-5.133v-3.593c0-2.835 2.298-5.133 5.133-5.133s5.133 2.298 5.133 5.133v3.593c0 2.835-2.297 5.133-5.133 5.133z" fill="#ff6c6c"/></g></g></g><g><g><circle cx="337.625" cy="385.984" fill="#8383ff" r="13.451"/><circle cx="379.549" cy="385.984" fill="#ff4d4d" r="13.451"/></g><g><path d="m304.52 390.984h-76.52c-2.762 0-5-2.239-5-5s2.238-5 5-5h76.52c2.762 0 5 2.239 5 5s-2.239 5-5 5z" fill="#fff"/></g></g></g><g><path d="m47.858 303.19c-7.175 0-13.012-5.837-13.012-13.012s5.837-13.012 13.012-13.012 13.012 5.837 13.012 13.012-5.837 13.012-13.012 13.012zm0-16.024c-1.661 0-3.012 1.351-3.012 3.012s1.351 3.012 3.012 3.012 3.012-1.351 3.012-3.012-1.351-3.012-3.012-3.012z" fill="#ff9d33"/></g><g><path d="m39.847 249.194c-7.175 0-13.012-5.837-13.012-13.012s5.837-13.012 13.012-13.012 13.012 5.837 13.012 13.012c-.001 7.174-5.837 13.012-13.012 13.012zm0-16.024c-1.661 0-3.012 1.351-3.012 3.012s1.351 3.012 3.012 3.012 3.012-1.351 3.012-3.012c-.001-1.661-1.352-3.012-3.012-3.012z" fill="#6c6cff"/></g><g><path d="m362.67 57.047c-1.28 0-2.559-.488-3.536-1.464l-11-11c-1.953-1.953-1.953-5.119 0-7.071l11-11c1.953-1.952 5.118-1.952 7.071 0l11 11c1.953 1.953 1.953 5.119 0 7.071l-11 11c-.976.975-2.255 1.464-3.535 1.464zm-3.929-16 3.929 3.929 3.929-3.929-3.929-3.929z" fill="#ff6c6c"/></g><g><path d="m470.028 173.17c-1.28 0-2.559-.488-3.536-1.464l-11-11c-1.953-1.953-1.953-5.119 0-7.071l11-11c1.953-1.952 5.118-1.952 7.071 0l11 11c1.953 1.953 1.953 5.119 0 7.071l-11 11c-.976.975-2.255 1.464-3.535 1.464zm-3.929-16 3.929 3.929 3.929-3.929-3.929-3.929z" fill="#ff6c6c"/></g><g><path d="m228.335 486.664c-1.28 0-2.559-.488-3.536-1.464l-11-11c-1.953-1.953-1.953-5.119 0-7.071l11-11c1.953-1.952 5.118-1.952 7.071 0l11 11c1.953 1.953 1.953 5.119 0 7.071l-11 11c-.976.976-2.255 1.464-3.535 1.464zm-3.929-16 3.929 3.929 3.929-3.929-3.929-3.929z" fill="#ff9d33"/></g></g></g><path d="m413.34 435.84h-314.68c-11.046 0-20-8.954-20-20v-314.68c0-11.046 8.954-20 20-20h314.68c11.046 0 20 8.954 20 20v314.68c0 11.045-8.955 20-20 20z" fill="url(#SVGID_2_)"/></g></svg>