<svg xmlns="http://www.w3.org/2000/svg" xmlns:xlink="http://www.w3.org/1999/xlink" width="1980" height="1600" viewBox="0 0 1980 1600">
  <defs>
    <clipPath id="clip-overlay">
      <rect width="1980" height="1600"/>
    </clipPath>
  </defs>
  <g id="overlay" clip-path="url(#clip-overlay)">
    <g id="Group_4" data-name="Group 4" transform="translate(-39 -450)">
      <g id="Group_3" data-name="Group 3" transform="translate(1817.216 449.869)">
        <g id="Ellipse_4" data-name="Ellipse 4" transform="translate(101.405 0)" fill="none" stroke="#87ceeb" stroke-width="5">
          <circle cx="100" cy="100" r="100" stroke="none"/>
          <circle cx="100" cy="100" r="97.5" fill="none"/>
        </g>
        <g id="Ellipse_5" data-name="Ellipse 5" transform="translate(0 972.838)" fill="none" stroke="#87ceeb" stroke-width="5">
          <circle cx="35" cy="35" r="35" stroke="none"/>
          <circle cx="35" cy="35" r="32.5" fill="none"/>
        </g>
        <circle id="Ellipse_6" data-name="Ellipse 6" cx="25" cy="25" r="25" transform="translate(35.466 1450)" fill="#87ceeb"/>
        <g id="Polygon_4" data-name="Polygon 4" transform="matrix(0.985, 0.174, -0.174, 0.985, 114.805, 1229.302)" fill="none">
          <path d="M57.71,29.739a20,20,0,0,1,34.58,0l40.238,69.209A20,20,0,0,1,115.238,129H34.762a20,20,0,0,1-17.29-30.052Z" stroke="none"/>
          <path d="M 75 24.79143524169922 C 72.43064880371094 24.79143524169922 69.90625 25.435791015625 67.69972991943359 26.65483093261719 C 65.34081268310547 27.95808410644531 63.43404388427734 29.84129333496094 62.03239440917969 32.25214385986328 L 21.79486083984375 101.460693359375 C 20.38606262207031 103.8838119506836 19.69273376464844 106.4849166870117 19.73414611816406 109.1917495727539 C 19.77287292480469 111.7228546142578 20.47364807128906 114.2431869506836 21.76075744628906 116.4803161621094 C 23.04783630371094 118.7174377441406 24.87445831298828 120.5900421142578 27.04316711425781 121.8957061767578 C 29.36241912841797 123.2920227050781 31.95956420898438 124 34.76248168945313 124 L 115.2375183105469 124 C 118.0404357910156 124 120.637580871582 123.2920227050781 122.9568328857422 121.8957061767578 C 125.1255416870117 120.5900421142578 126.9521636962891 118.7174377441406 128.2392578125 116.4803161621094 C 129.5263366699219 114.2431869506836 130.2271270751953 111.7228546142578 130.2658538818359 109.1917495727539 C 130.3072509765625 106.4849395751953 129.6139373779297 103.8838348388672 128.2051239013672 101.460693359375 L 87.96760559082031 32.25214385986328 C 86.56593322753906 29.84129333496094 84.65916442871094 27.95808410644531 82.30027008056641 26.65483093261719 C 80.09375 25.435791015625 77.56935119628906 24.79143524169922 75 24.79143524169922 M 75 19.79145050048828 C 81.71724700927734 19.79145050048828 88.43449401855469 23.10731506347656 92.29014587402344 29.73904418945313 L 132.5276641845703 98.94758605957031 C 140.2795562744141 112.2808380126953 130.6604614257813 129 115.2375183105469 129 L 34.76248168945313 129 C 19.33953857421875 129 9.720443725585938 112.2808380126953 17.47230529785156 98.94758605957031 L 57.70985412597656 29.73904418945313 C 61.56551361083984 23.10731506347656 68.28275299072266 19.79145050048828 75 19.79145050048828 Z" stroke="none" fill="#87ceeb"/>
        </g>
        <path id="Polygon_5" data-name="Polygon 5" d="M37.032,22.3a15,15,0,0,1,25.935,0L86.9,63.461A15,15,0,0,1,73.928,86H26.072A15,15,0,0,1,13.1,63.461Z" transform="matrix(-0.174, 0.985, -0.985, -0.174, 202.121, 858.076)" fill="#87ceeb"/>
        <rect id="Rectangle_3" data-name="Rectangle 3" width="250" height="250" rx="35" transform="translate(117.58 321.207) rotate(20)" fill="#87ceeb"/>
      </g>
      <g id="Group_5" data-name="Group 5" transform="translate(-112.1 449.869)">
        <g id="Ellipse_4-2" data-name="Ellipse 4" transform="translate(51.1)" fill="none" stroke="#87ceeb" stroke-width="5">
          <circle cx="100" cy="100" r="100" stroke="none"/>
          <circle cx="100" cy="100" r="97.5" fill="none"/>
        </g>
        <g id="Ellipse_5-2" data-name="Ellipse 5" transform="translate(282.505 972.838)" fill="none" stroke="#87ceeb" stroke-width="5">
          <circle cx="35" cy="35" r="35" stroke="none"/>
          <circle cx="35" cy="35" r="32.5" fill="none"/>
        </g>
        <circle id="Ellipse_6-2" data-name="Ellipse 6" cx="25" cy="25" r="25" transform="translate(267.039 1450)" fill="#87ceeb"/>
        <g id="Polygon_4-2" data-name="Polygon 4" transform="matrix(0.985, -0.174, 0.174, 0.985, 89.978, 1255.349)" fill="none">
          <path d="M57.71,29.739a20,20,0,0,1,34.58,0l40.238,69.209A20,20,0,0,1,115.238,129H34.762a20,20,0,0,1-17.29-30.052Z" stroke="none"/>
          <path d="M 75 24.79143524169922 C 72.43064880371094 24.79143524169922 69.90625 25.435791015625 67.69972991943359 26.65483093261719 C 65.34081268310547 27.95808410644531 63.43404388427734 29.84129333496094 62.03239440917969 32.25214385986328 L 21.79486083984375 101.460693359375 C 20.38606262207031 103.8838119506836 19.69273376464844 106.4849166870117 19.73414611816406 109.1917495727539 C 19.77287292480469 111.7228546142578 20.47364807128906 114.2431869506836 21.76075744628906 116.4803161621094 C 23.04783630371094 118.7174377441406 24.87445831298828 120.5900421142578 27.04316711425781 121.8957061767578 C 29.36241912841797 123.2920227050781 31.95956420898438 124 34.76248168945313 124 L 115.2375183105469 124 C 118.0404357910156 124 120.637580871582 123.2920227050781 122.9568328857422 121.8957061767578 C 125.1255416870117 120.5900421142578 126.9521636962891 118.7174377441406 128.2392578125 116.4803161621094 C 129.5263366699219 114.2431869506836 130.2271270751953 111.7228546142578 130.2658538818359 109.1917495727539 C 130.3072509765625 106.4849395751953 129.6139373779297 103.8838348388672 128.2051239013672 101.460693359375 L 87.96760559082031 32.25214385986328 C 86.56593322753906 29.84129333496094 84.65916442871094 27.95808410644531 82.30027008056641 26.65483093261719 C 80.09375 25.435791015625 77.56935119628906 24.79143524169922 75 24.79143524169922 M 75 19.79145050048828 C 81.71724700927734 19.79145050048828 88.43449401855469 23.10731506347656 92.29014587402344 29.73904418945313 L 132.5276641845703 98.94758605957031 C 140.2795562744141 112.2808380126953 130.6604614257813 129 115.2375183105469 129 L 34.76248168945313 129 C 19.33953857421875 129 9.720443725585938 112.2808380126953 17.47230529785156 98.94758605957031 L 57.70985412597656 29.73904418945313 C 61.56551361083984 23.10731506347656 68.28275299072266 19.79145050048828 75 19.79145050048828 Z" stroke="none" fill="#87ceeb"/>
        </g>
        <path id="Polygon_5-2" data-name="Polygon 5" d="M37.032,22.3a15,15,0,0,1,25.935,0L86.9,63.461A15,15,0,0,1,73.928,86H26.072A15,15,0,0,1,13.1,63.461Z" transform="matrix(-0.174, -0.985, 0.985, -0.174, 167.749, 956.557)" fill="#87ceeb"/>
        <rect id="Rectangle_3-2" data-name="Rectangle 3" width="250" height="250" rx="35" transform="translate(320.428 556.13) rotate(160)" fill="#87ceeb"/>
      </g>
    </g>
  </g>
</svg>
