<svg xmlns="http://www.w3.org/2000/svg" width="297.45" height="337.341" viewBox="0 0 297.45 337.341">
  <g id="js" transform="translate(0 -82.536)">
    <path id="Path_20" data-name="Path 20" d="M27.07,386.156,0,82.536H297.45l-27.1,303.571-121.809,33.77Z" fill="#fc3"/>
    <path id="Path_21" data-name="Path 21" d="M148.725,394.064l98.428-27.287,23.158-259.416H148.725Z" fill="#f8dc3d"/>
    <path id="Path_22" data-name="Path 22" d="M148.93,209.97v37.237l45.853,10L190.461,305.5,148.93,316.711v38.742L225.27,334.3l.558-6.291,9.658-98.034Zm76-67.234-76.34-21.158V160.32l76.381,21.518Z" fill="#fff"/>
    <path id="Path_23" data-name="Path 23" d="M149.059,209.97l-48.256,10,6.275-48.465,41.473-11.2.164.046V121.608l-.172-.048L72.264,142.736l-9.84,77.234h-.018l.006.079-.006.055h.012l3.309,37.1h.181l6.7,77.088,76.28,21.176.172-.049V316.678l-.164.047-41.473-11.2-4.145-48.318,45.782-10Z" fill="#ebebeb"/>
  </g>
</svg>
